<?xml version="1.0" encoding="UTF-8" standalone="no"?>
<!-- Created with Inkscape (http://www.inkscape.org/) -->

<svg
   xmlns:dc="http://purl.org/dc/elements/1.1/"
   xmlns:cc="http://creativecommons.org/ns#"
   xmlns:rdf="http://www.w3.org/1999/02/22-rdf-syntax-ns#"
   xmlns:svg="http://www.w3.org/2000/svg"
   xmlns="http://www.w3.org/2000/svg"
   xmlns:sodipodi="http://sodipodi.sourceforge.net/DTD/sodipodi-0.dtd"
   xmlns:inkscape="http://www.inkscape.org/namespaces/inkscape"
   id="svg3165"
   version="1.1"
   inkscape:version="0.48.4 r9939"
   width="876"
   height="873"
   sodipodi:docname="sun.png">
  <metadata
     id="metadata3171">
    <rdf:RDF>
      <cc:Work
         rdf:about="">
        <dc:format>image/svg+xml</dc:format>
        <dc:type
           rdf:resource="http://purl.org/dc/dcmitype/StillImage" />
        <dc:title></dc:title>
      </cc:Work>
    </rdf:RDF>
  </metadata>
  <defs
     id="defs3169" />
  <sodipodi:namedview
     pagecolor="#ffffff"
     bordercolor="#666666"
     borderopacity="1"
     objecttolerance="10"
     gridtolerance="10"
     guidetolerance="10"
     inkscape:pageopacity="0"
     inkscape:pageshadow="2"
     inkscape:window-width="870"
     inkscape:window-height="592"
     id="namedview3167"
     showgrid="false"
     inkscape:zoom="1.1039267"
     inkscape:cx="438"
     inkscape:cy="436.5"
     inkscape:window-x="53"
     inkscape:window-y="24"
     inkscape:window-maximized="0"
     inkscape:current-layer="svg3165" />
  <g
     id="g3175">
    <path
       style="fill:#fefefe"
       d="M 0,436.5 0,0 438,0 876,0 876,436.5 876,873 438,873 0,873 0,436.5 z"
       id="path3191"
       inkscape:connector-curvature="0" />
    <path
       style="fill:#cfcfcf"
       d="m 260.47905,870.64235 c -5.41816,-2.52307 -10.70382,-7.24255 -12.92758,-11.54281 -4.15204,-8.02916 -6.21961,-23.95782 -4.23149,-32.59954 1.58908,-6.90725 41.6096,-107.94234 45.18906,-114.0835 1.30906,-2.24592 5.29269,-6.80807 8.8525,-10.13809 15.00943,-14.04059 32.24536,-16.23709 43.13951,-5.49758 7.94183,7.82909 12.53337,24.10592 10.44977,37.04394 -1.21058,7.51698 -42.89078,112.74898 -47.06848,118.83601 -4.16145,6.06337 -12.39636,12.92143 -20.2667,16.87817 -8.60425,4.32571 -15.50966,4.65504 -23.13659,1.1034 z M 606.5,868.25867 C 597.67231,865.08459 587.36127,857.17885 582.03406,849.5 580.50781,847.3 568.75279,820.975 555.91181,791 l -23.34725,-54.5 -0.39396,-10.20299 c -0.68682,-17.78758 4.69899,-29.90038 15.83627,-35.61614 4.77573,-2.45095 6.40732,-2.77635 12.49313,-2.49161 11.19755,0.5239 24.16449,8.10287 31.82681,18.60226 5.12033,7.01619 49.45833,111.18427 50.75717,119.24933 1.95772,12.1563 -1.53295,26.77945 -8.20067,34.35438 -7.56806,8.59776 -18.17119,11.53531 -28.38331,7.86344 z M 425,687.40397 c -21.8728,-1.86044 -38.96675,-4.9392 -56,-10.08604 C 277.95483,649.80732 206.53152,570.66865 189.56517,478.5 c -3.59906,-19.55168 -4.63079,-46.56581 -2.53174,-66.28941 11.70729,-110.00686 100.28456,-204.03998 210.35359,-223.31016 51.97105,-9.09876 104.67169,-0.47054 153.37683,25.11105 76.2183,40.03244 128.81696,116.44442 137.28627,199.44073 2.65803,26.04781 -0.005,57.71423 -7.09352,84.3406 -25.9885,97.6238 -113.2774,174.56018 -212.96643,187.70849 -11.13653,1.46883 -35.44318,2.5446 -42.99017,1.90267 z M 28.54985,639.39441 C 21.171632,637.61009 15.40202,634.29427 10.787046,629.18605 6.2146133,624.12491 4.6834642,619.31204 5.1774907,611.5535 5.8704776,600.67035 14.353614,586.87795 24.812256,579.63011 c 2.183143,-1.51292 28.205989,-13.09164 57.828547,-25.73048 58.168327,-24.81827 60.114697,-25.45007 73.401327,-23.82652 13.55789,1.6567 23.69657,7.62421 27.97736,16.46715 3.27449,6.76419 2.57489,16.77878 -1.79175,25.6487 -3.95889,8.04164 -12.94019,17.62224 -19.73165,21.04829 -9.85232,4.97013 -106.432789,45.73899 -110.668983,46.71594 -6.031452,1.39097 -16.227017,1.14623 -23.277257,-0.55878 z M 829.5,632.96614 c -4.04575,-0.82404 -105.62688,-41.48006 -112.98052,-45.21842 -6.08155,-3.09167 -15.84042,-13.45955 -19.50846,-20.7259 -10.26628,-20.33737 -0.0453,-38.0022 24.36711,-42.11343 13.52366,-2.27748 14.9503,-1.85312 74.56674,22.18004 34.02179,13.7152 56.53897,23.34608 59.82601,25.58834 6.158,4.2007 11.66252,10.51552 16.18879,18.5719 5.7833,10.29377 5.04993,22.4313 -1.86197,30.81664 -7.13973,8.66172 -26.31394,13.81017 -40.5977,10.90083 z M 135,347.60274 C 129.84123,346.15567 29.55428,305.80407 23.5,302.73944 17.125691,299.51281 7.9774621,289.4216 3.6112563,280.80059 c -3.65178814,-7.2104 -3.85901371,-8.09378 -3.40083687,-14.4974 0.53949629,-7.54017 2.23240497,-11.59217 6.71666337,-16.07643 4.9187432,-4.91874 11.2166002,-7.99237 20.0393682,-9.78009 14.787311,-2.9963 14.915192,-2.96011 74.959969,21.21373 29.46547,11.8627 55.36481,22.4791 57.5541,23.592 6.36238,3.23425 15.74402,13.38012 19.55691,21.15002 7.83307,15.96221 3.63657,30.11146 -11.17125,37.66585 -8.68153,4.42898 -23.85861,6.06114 -32.86618,3.53447 z m 584.5,-4.64603 c -13.15932,-1.72986 -23.31922,-7.82036 -27.51949,-16.49697 -3.30243,-6.8219 -2.57849,-16.77148 1.87913,-25.82619 4.01037,-8.14623 12.68388,-17.35957 19.65124,-20.87433 11.58023,-5.84177 106.93111,-45.87512 111.7014,-46.89817 6.93969,-1.48829 18.89455,-0.56175 26.25434,2.03481 6.9701,2.45907 11.85081,6.12278 16.03338,12.03547 2.74355,3.87842 3,4.94062 3,12.42584 0,7.27192 -0.37561,8.94786 -3.36744,15.02512 -3.6734,7.46175 -13.32111,18.13371 -19.06782,21.09217 -5.77577,2.97342 -106.36099,45.70791 -109.56474,46.54952 -5.23572,1.37539 -12.80566,1.74701 -19,0.93273 z M 303.72267,182.57679 c -7.42259,-3.0523 -15.99752,-9.68704 -20.75407,-16.0582 -2.51217,-3.36493 -11.40261,-22.90507 -26.98102,-59.3011 -26.24888,-61.325604 -26.58747,-62.419855 -23.68816,-76.555777 1.91204,-9.322426 4.53653,-15.091416 8.89234,-19.546645 10.54019,-10.78075771 25.58395,-10.0747693 41.50789,1.947922 9.50484,7.176219 11.5294,11.016849 36.3396,68.93701 l 23.34517,54.5 0.41947,10.20299 c 0.512,12.45359 -1.78528,21.36571 -7.40439,28.72484 -7.1175,9.3215 -19.56319,12.1303 -31.67683,7.14896 z m 237.75514,-1.38504 c -12.2481,-5.75523 -20.06204,-24.18992 -17.56529,-41.44014 1.10964,-7.66657 42.58956,-112.714103 47.09024,-119.25562 6.7361,-9.790593 20.88164,-19.2189289 30.27891,-20.18161504 12.75879,-1.30705048 24.54089,6.66168644 28.26301,19.11547404 2.59098,8.669136 3.55742,18.20738 2.5062,24.734866 -0.99489,6.177703 -41.12319,108.643335 -45.59273,116.418785 -3.39637,5.90851 -14.3609,15.75054 -21.12511,18.96241 -7.74001,3.67522 -18.02608,4.38488 -23.85523,1.64584 z"
       id="path3189"
       inkscape:connector-curvature="0" />
    <path
       style="fill:#b0b0b0"
       d="m 263.99353,872.12563 c -8.64791,-2.83748 -15.6852,-9.9706 -18.59943,-18.85272 C 243.96125,848.90581 243.5,844.57779 243.5,835.5 l 0,-12 21.73796,-54.30233 c 11.95588,-29.86628 23.07484,-56.24541 24.7088,-58.62028 7.069,-10.27445 21.03249,-19.38854 31.20178,-20.36568 7.77383,-0.74697 13.60257,1.43013 19.44767,7.26392 7.70782,7.69292 9.83169,13.93733 9.87185,29.02437 l 0.0319,12 -21.87474,54.80944 c -17.41429,43.63333 -22.75002,55.99843 -26.16729,60.64045 -4.09766,5.56628 -12.99725,12.78443 -20.41278,16.55611 -3.85024,1.95831 -14.19161,2.88615 -18.05166,1.61963 z m 343.03006,-3.72666 C 596.52187,864.58159 584.05312,854.01336 579.59029,845.14711 578.30377,842.5912 567.18215,817.1 554.87558,788.5 l -22.37558,-52 0,-12.5 c 0,-11.47735 0.21991,-12.96923 2.68802,-18.23546 3.99412,-8.52231 7.39804,-12.41492 13.44218,-15.37204 7.46268,-3.65115 16.04391,-3.11483 25.33389,1.58337 7.7315,3.91003 17.75724,13.23424 21.27516,19.78648 1.39901,2.60571 12.51088,28.03307 24.69303,56.50525 24.01957,56.13862 24.45743,57.50745 22.93955,71.71325 -1.32197,12.37225 -7.49656,22.68292 -16.29944,27.21771 -5.30634,2.73356 -13.88232,3.26017 -19.5488,1.20041 z M 407.5,685.46632 C 324.84186,674.64836 249.77435,620.13094 211.48061,543.10818 195.34796,510.6595 187.528,479.86703 186.3114,444 184.94439,403.6988 193.05424,366.89534 211.43195,330 255.21837,242.09376 343.53761,185.73166 437.5,185.73166 c 77.96089,0 152.74747,38.75484 201.84016,104.59476 23.97105,32.1484 40.08082,69.61893 46.76005,108.76153 3.08025,18.05137 3.3632,54.4724 0.55479,71.41205 -4.66344,28.12867 -11.51054,49.37537 -23.81618,73.90216 -38.49981,76.73522 -113.88334,130.80814 -196.80081,141.16603 -14.04228,1.75413 -44.76513,1.70067 -58.53801,-0.10187 z M 31.235865,640.00665 C 14.098245,636.36065 3.9845742,625.13492 5.2513256,611.16496 6.2442588,600.21472 14.760298,586.77982 25.149177,579.77413 28.09213,577.78957 54.575,565.89102 84,553.33291 L 137.5,530.5 l 12,0 c 9.33114,0 13.13937,0.42298 17.12294,1.90185 8.17738,3.0358 13.79485,7.70882 16.90259,14.0608 2.3907,4.88642 2.67771,6.45279 2.25776,12.32207 -0.33175,4.6367 -1.38168,8.57456 -3.3822,12.68524 -3.37828,6.94174 -12.94861,17.61521 -18.81759,20.98665 -2.24593,1.29017 -28.06128,12.54544 -57.36746,25.01171 l -53.28395,22.66595 -8.716045,0.38979 c -4.793825,0.21438 -10.634906,-0.0184 -12.98018,-0.51741 z M 830.5,632.9438 c -2.75,-0.50115 -29.47604,-10.81242 -59.39119,-22.91394 -58.68652,-23.74035 -61.30864,-25.08239 -69.05616,-35.3439 -18.29111,-24.2264 -7.73143,-46.69004 23.60987,-50.22532 3.21062,-0.36215 8.41305,-0.18143 11.56098,0.4016 3.14792,0.58303 30.59792,11.06782 61,23.29952 l 55.2765,22.23947 8.08262,8.04938 c 10.50078,10.45762 13.93066,17.13917 13.88543,27.04939 -0.0615,13.46502 -8.09397,22.85827 -22.46805,26.27422 -6.95811,1.65358 -16.98425,2.17475 -22.5,1.16958 z M 137.35907,348.02428 c -2.27751,-0.48551 -28.78724,-10.81067 -58.910526,-22.94481 -58.26923,-23.47176 -59.883896,-24.28572 -68.229032,-34.3944 -14.1906208,-17.18948 -13.3642539,-33.9212 2.204375,-44.6327 7.482243,-5.14792 21.530835,-7.84208 31.871242,-6.11208 8.008145,1.33979 111.608731,43.13384 118.555691,47.82717 10.83166,7.31779 18.98754,20.34967 19.90738,31.80903 0.44218,5.50855 0.14511,7.10085 -2.23071,11.95686 -3.36652,6.88092 -9.43509,11.64 -18.47937,14.49186 -7.47624,2.35743 -18.73259,3.26886 -24.68905,1.99907 z M 713,341.63192 c -11.10951,-3.30372 -16.80593,-7.49199 -20.52302,-15.08945 -2.39365,-4.89243 -2.68017,-6.45551 -2.25885,-12.32281 0.32057,-4.46427 1.40942,-8.67747 3.2441,-12.5527 3.19805,-6.75495 13.0348,-17.72052 18.95427,-21.12937 2.24593,-1.29336 28.1585,-12.61656 57.5835,-25.16267 l 53.5,-22.8111 11,0.0375 c 8.99892,0.0307 12.0519,0.44947 16.78231,2.30203 16.52398,6.47124 23.14922,19.38329 17.78164,34.655 -2.61899,7.45151 -10.05965,17.62042 -16.37338,22.377 -3.66556,2.76152 -21.20285,10.74659 -59.69057,27.17828 l -54.5,23.26787 -10.5,0.2943 c -6.69569,0.18768 -12.13042,-0.19054 -15,-1.0439 z M 308,184.06287 C 299.24348,181.38261 288.88238,173.91805 282.9045,165.98306 277.68627,159.05643 233.4596,55.582654 232.09466,47.107164 229.2322,29.332926 237.01871,10.67861 249.5,5.4087802 c 12.16936,-5.1381281 31.75205,2.6307214 42.07357,16.6914368 2.34933,3.20043 12.15391,24.747093 27.16756,59.703722 L 342.23272,136.5 l 0.51336,9.12503 c 1.01767,18.08916 -5.44031,32.15099 -17.22389,37.50389 -4.1559,1.88789 -12.88549,2.35319 -17.52219,0.93395 z m 235,-2.31003 c -5.37498,-1.78662 -13.2903,-10.30285 -16.06427,-17.28383 -2.02301,-5.09112 -2.37655,-7.7339 -2.40379,-17.96901 L 524.5,134.5 545.39261,82 c 11.49093,-28.875 22.01554,-54.745104 23.38802,-57.489121 3.44409,-6.88585 12.34851,-15.2701443 21.25097,-20.0096579 6.67646,-3.55442984 8.21067,-3.97423003 14.4684,-3.95893348 5.20382,0.0127203 8.02639,0.56434878 11,2.14978268 11.66345,6.2185774 17.29178,19.3784127 16.26337,38.0260917 -0.47785,8.664735 -0.77353,9.50714 -22.17369,63.174108 -11.92915,29.91575 -22.9984,56.29488 -24.59832,58.62028 C 574.96391,177.08696 555.62328,185.94876 543,181.75284 z"
       id="path3187"
       inkscape:connector-curvature="0" />
    <path
       style="fill:#8f8f8f"
       d="m 263.99353,872.12563 c -8.36819,-2.74569 -14.54415,-8.80836 -18.07643,-17.7448 -1.98252,-5.01566 -2.33108,-7.7198 -2.36931,-18.38083 l -0.0448,-12.5 21.91557,-54.5 c 12.05356,-29.975 23.17185,-56.35413 24.7073,-58.62028 4.15872,-6.13777 12.20316,-12.92406 19.68813,-16.6089 5.62562,-2.76948 7.72013,-3.26627 13.665,-3.24112 8.4201,0.0356 13.55553,2.35612 18.8166,8.50251 5.97856,6.9846 8.20572,14.58399 8.19654,27.96779 l -0.008,11.5 -22.22886,55.5 c -18.83274,47.02075 -22.88019,56.3038 -26.49211,60.76117 -4.52788,5.58772 -12.62697,12.10833 -19.21236,15.46795 -4.3332,2.21063 -14.44917,3.24445 -18.55737,1.89651 z m 343.29361,-3.93556 C 597.34947,864.6488 585.44222,855.00168 580.51551,846.5 576.94683,840.34177 534.3112,740.13563 532.94067,734.68527 c -1.72623,-6.86492 -0.696,-20.76767 2.08861,-28.18527 2.96893,-7.90858 10.61146,-15.79265 16.97072,-17.50705 11.13586,-3.00213 24.09528,1.8477 35.42614,13.2576 l 7.19922,7.24945 23.84725,55.5 23.84724,55.5 0.45175,10.20299 c 0.37328,8.43057 0.0834,11.41563 -1.66851,17.18353 -5.15487,16.97126 -19.31263,25.47178 -33.81595,20.30355 z M 408.5,685.46915 C 362.20209,679.42296 315.13919,658.61993 279,628.22677 267.49241,618.54885 249.68547,600.39326 241.01694,589.5 225.41325,569.89172 208.96075,540.71202 200.5017,517.64329 c -4.68852,-12.78609 -9.90397,-33.23365 -12.16121,-47.67894 -2.4996,-15.99625 -2.4996,-50.93245 0,-66.9287 2.09625,-13.41499 7.19571,-33.78605 11.64921,-46.53565 4.09949,-11.73612 17.30014,-38.58817 24.58035,-50 37.47733,-58.74627 97.44937,-101.20374 163.15905,-115.50919 30.8975,-6.72659 68.6443,-6.72659 99.5418,0 65.70968,14.30545 125.68172,56.76292 163.15905,115.50919 7.28021,11.41183 20.48086,38.26388 24.58035,50 4.4535,12.7496 9.55296,33.12066 11.64921,46.53565 2.50117,16.00634 2.48588,50.91263 -0.0293,66.96435 -2.28088,14.55619 -7.46617,34.91947 -12.13186,47.64329 -9.17098,25.01023 -27.11068,55.95149 -44.27153,76.35671 -9.67792,11.50759 -27.83351,29.31453 -38.72677,37.98306 -29.56564,23.52746 -70.01203,42.87695 -104.5,49.99262 -24.39387,5.03303 -55.95558,6.43761 -78.5,3.49347 z M 30.388747,639.51161 C 13.968992,635.93979 5.5753053,627.15235 5.5426607,613.5 5.5234937,605.48418 8.3631923,598.18137 14.773142,589.76211 21.943522,580.34405 25.343459,578.56158 83,553.9931 l 54.5,-23.22343 9.12503,-0.51455 c 38.3864,-2.1646 52.26695,28.29922 25.12442,55.14088 l -7.24945,7.16908 -54.57625,23.2104 c -30.016943,12.76571 -56.965864,23.66357 -59.886493,24.21745 -6.840022,1.29719 -12.060551,1.1693 -19.64851,-0.48132 z M 832.5,632.90621 c -4.65793,-0.46706 -18.30231,-5.5761 -61,-22.84102 -60.46967,-24.45106 -61.94314,-25.22231 -70.14461,-36.71563 -10.57893,-14.82505 -10.98715,-28.56396 -1.14126,-38.40985 7.36882,-7.36881 23.40971,-11.83916 36.03426,-10.04218 4.41163,0.62796 21.70342,7.13226 58.75161,22.09941 28.875,11.66526 54.68604,22.38603 57.35786,23.82394 6.25286,3.36514 16.36088,14.29549 20.16739,21.80811 3.82816,7.55532 4.14923,17.53407 0.77009,23.93407 -6.4244,12.16767 -21.64136,18.26378 -40.79534,16.34315 z M 138.5,348.00192 C 133.43255,347.24325 32.579848,307.01619 23.642137,302.18863 17.382375,298.80752 7.277053,287.87531 3.4747464,280.37101 -1.937598,269.68911 -0.20517329,257.07582 7.6584172,249.91088 16.258904,242.07453 24.207126,239.6397 39.366534,240.19755 L 49.5,240.57045 102,261.86382 c 28.875,11.71135 54.43953,22.25127 56.81007,23.42203 11.96723,5.91038 24.20149,23.83817 24.18435,35.43917 -0.0205,13.86585 -11.73902,24.65727 -29.5751,27.23526 -7.65037,1.10577 -7.80863,1.10621 -14.91932,0.0416 z M 713,341.6331 c -10.33072,-3.00665 -17.0383,-7.96811 -20.5919,-15.23141 -2.22651,-4.55081 -2.57745,-6.40116 -2.23477,-11.78278 0.60541,-9.5079 5.87827,-19.5407 14.57829,-27.73852 l 6.77126,-6.38039 54.92176,-23.39505 c 61.03854,-26.00062 62.61892,-26.49975 76.43465,-24.14067 18.55114,3.16767 29.47666,14.79583 27.75099,29.53572 -1.34424,11.48184 -13.10954,27.94094 -23.71723,33.17927 -2.42718,1.1986 -27.81305,12.17203 -56.41305,24.3854 l -52,22.20612 -10.5,0.336 c -6.67436,0.21357 -12.13956,-0.14118 -15,-0.97369 z M 307.5,183.59785 c -7.62686,-2.41838 -13.03485,-5.92032 -20.06268,-12.99155 L 280.37464,163.5 256.52739,108 232.68015,52.5 232.2284,42.297007 c -0.37115,-8.382382 -0.0801,-11.426559 1.63101,-17.060049 2.4841,-8.178379 6.60384,-14.191606 12.30987,-17.9676778 C 249.92428,4.7843347 251.23417,4.5 258.92697,4.5 c 11.51346,0 17.71093,2.9594869 28.10332,13.4202 l 7.53029,7.5798 23.96971,56 23.96971,56 -0.0531,11.5 c -0.0674,14.61466 -2.26973,21.02609 -9.83778,28.64034 -7.09316,7.13647 -15.27152,9.07691 -25.10914,5.95751 z m 237.49353,-1.47268 c -8.30262,-2.72268 -14.59039,-8.962 -18.18595,-18.04582 -1.83086,-4.62548 -2.2169,-7.63091 -2.258,-17.57935 L 524.5,134.5 546.75799,79 c 23.63755,-58.939931 24.68267,-61.030077 34.36183,-68.721078 6.01913,-4.7827553 15.04139,-9.2022137 20.24119,-9.91492533 2.74475,-0.37621019 6.42396,0.0129901 10.02846,1.06084893 C 625.35514,5.4847735 632.74177,19.493073 631.7303,40 l -0.46856,9.5 -21.18938,52.97218 c -11.65416,29.1347 -22.37904,55.15796 -23.83306,57.82947 -3.52756,6.48129 -12.71815,14.82417 -20.61079,18.7097 -6.74706,3.32157 -15.82445,4.69135 -20.63498,3.11382 z"
       id="path3185"
       inkscape:connector-curvature="0" />
    <path
       style="fill:#6e6e6e"
       d="m 262.6275,871.59276 c -2.12988,-0.79272 -5.50488,-2.75466 -7.5,-4.35986 -8.43621,-6.78746 -11.62502,-15.49087 -11.6265,-31.7329 l -0.001,-11 21.29175,-53.37168 c 11.71047,-29.35443 22.23717,-55.22943 23.39267,-57.5 3.27288,-6.43125 13.65912,-15.97095 21.48065,-19.72984 5.6508,-2.71567 8.04766,-3.2946 13.83493,-3.34161 5.93623,-0.0482 7.72825,0.3712 11.79216,2.75999 5.5847,3.28272 9.74206,8.62082 12.8802,16.53832 1.85803,4.6878 2.23818,7.59452 2.24226,17.14482 l 0.005,11.5 -22.42011,56 -22.42012,56 -8.03965,8 c -4.9185,4.89423 -10.24912,9.10235 -13.73091,10.8395 -6.89489,3.44003 -15.52576,4.35818 -21.18125,2.25326 z m 346.21487,-2.98221 c -7.0319,-1.89394 -15.33665,-7.36818 -22.18996,-14.62694 l -6.15241,-6.5164 -24,-55.9836 -24,-55.98361 0.0712,-11.5 c 0.0906,-14.62806 2.28724,-20.98887 9.86557,-28.5672 5.9162,-5.91621 12.30627,-8.1123 20.34864,-6.99327 10.04778,1.39807 23.51463,10.3116 30.12627,19.94019 1.5561,2.26615 13.35005,28.64528 26.20879,58.62028 l 23.37953,54.5 -0.0496,12 c -0.042,10.1547 -0.40998,12.91356 -2.39327,17.94089 -3.19031,8.08693 -10.03823,14.88207 -17.11581,16.98389 -6.21342,1.84519 -7.85739,1.86685 -14.09897,0.18577 z M 410,685.57279 C 337.58388,676.34627 272.0655,635.69385 229.5,573.57731 197.48678,526.8599 182.06892,469.84525 187.02328,416.5 c 3.75687,-40.45156 17.17564,-78.58338 39.77726,-113.03418 10.30297,-15.70442 18.17596,-25.49171 31.64101,-39.33444 14.39569,-14.79947 26.95537,-25.28447 43.32574,-36.16896 58.47021,-38.87622 124.65379,-51.11584 191.68643,-35.44942 34.46364,8.05461 73.85103,28.12744 102.54628,52.26023 11.50759,9.67792 29.31453,27.83351 37.98306,38.72677 68.42847,85.99021 72.97075,200.39676 11.51694,290.07731 -25.70741,37.51525 -61.1966,68.42803 -100.87826,87.86979 -24.1378,11.82615 -47.04758,19.17718 -72.12174,23.14159 -13.70055,2.16616 -48.87538,2.72 -62.5,0.9841 z M 33.5,639.992 C 26.9189,638.99367 18.713336,635.78147 14.463212,632.53974 4.9773398,625.30451 2.755375,612.52938 8.7535882,599.7124 12.27552,592.18673 21.071444,582.21238 27.5,578.45445 c 5.782618,-3.38033 106.75315,-46.23759 112.11592,-47.58796 6.55651,-1.65094 20.63361,-0.55907 27.88408,2.16279 7.90858,2.96893 15.79265,10.61146 17.50705,16.97072 3.45754,12.82513 -5.33198,31.35571 -19.38677,40.87228 -6.55354,4.43745 -110.053234,48.13937 -116.516417,49.19814 C 42.838709,641.09675 40.712105,641.08606 33.5,639.992 z M 827,632.11866 c -7.36305,-2.47554 -106.2138,-42.70309 -110.16942,-44.83371 -7.1173,-3.8336 -15.45912,-12.77166 -19.39843,-20.78495 -6.15355,-12.51746 -5.60022,-21.6193 1.82728,-30.05738 7.43711,-8.44901 18.2327,-12.02149 33.84161,-11.19886 L 742.5,525.7391 796,547.44102 c 29.425,11.93606 55.34493,22.77413 57.59984,24.08461 5.74023,3.33601 14.26601,12.86518 18.35316,20.51308 2.98102,5.57813 3.45612,7.41809 3.47585,13.46129 0.0173,5.3017 -0.50702,8.00156 -2.16119,11.12821 -2.88953,5.46169 -10.24744,11.8198 -16.07313,13.88909 -5.27274,1.87287 -26.1014,2.97752 -30.19453,1.60136 z M 131.5,346.1073 C 122.69755,342.90225 27.155797,304.13193 23.859717,302.42746 15.644123,298.17901 4.5748633,284.69066 1.4409493,275.10927 -2.4112145,263.33196 2.5225182,251.83161 14.302335,245.12985 c 6.838939,-3.89081 15.533396,-5.49673 26.415827,-4.87919 8.68876,0.49305 9.348882,0.7281 62.281838,22.17623 29.425,11.92284 55.3,22.73268 57.5,24.02187 9.88262,5.79114 20.51842,20.82277 22.07422,31.19763 1.96424,13.09848 -7.34142,24.79166 -23.07422,28.99426 -7.34643,1.9624 -21.90734,1.68504 -28,-0.53335 z m 581.75067,-4.65244 c -7.71787,-2.07825 -12.33369,-4.73639 -16.98267,-9.77994 -4.90143,-5.31743 -6.71199,-10.99102 -5.93311,-18.59204 1.05429,-10.28864 10.05799,-24.19301 20.04483,-30.95516 2.26615,-1.53443 28.16979,-13.03425 57.56363,-25.55515 58.23943,-24.80826 60.60146,-25.57301 73.03014,-23.64463 15.97486,2.47858 25.4931,8.9895 28.55895,19.53565 2.04514,7.03504 1.32577,13.21431 -2.47365,21.24817 -3.22777,6.82513 -12.55945,17.32816 -18.45895,20.77599 -5.07376,2.96525 -105.8039,45.92009 -111.19166,47.41599 -5.3665,1.49001 -17.81625,1.25867 -24.15751,-0.44888 z M 306.41302,183.17621 c -7.26259,-2.51058 -14.54448,-7.47008 -20.63543,-14.05422 -5.0169,-5.42314 -6.4631,-8.46907 -29.27759,-61.66346 L 232.5,51.5 l 0.0496,-12 c 0.0411,-9.948436 0.42714,-12.953866 2.258,-17.579347 6.72211,-16.9827211 22.2601,-22.51952405 39.15651,-13.9530197 8.19939,4.1571017 17.94982,13.4616847 21.25957,20.2874517 1.39877,2.884703 12.5514,28.627521 24.78362,57.206262 21.68342,50.660003 22.25242,52.162673 22.71971,60.000003 1.63582,27.43564 -15.26699,44.99051 -36.31397,37.71486 z m 238.58051,-1.05118 c -14.01931,-4.59656 -22.03457,-19.99714 -20.74973,-39.86867 0.46899,-7.25352 1.94769,-11.3868 22.80914,-63.75636 l 22.30763,-56 7.56971,-7.533647 C 588.8832,3.070392 599.66274,-1.4798709 610.0105,1.0025192 624.47334,4.4721005 632.9089,19.698119 631.8049,40.340995 631.38418,48.207856 630.60492,50.415638 610.04181,102 c -11.72972,29.425 -22.22684,55.3 -23.32695,57.5 -3.07906,6.15755 -13.59495,15.86335 -21.03402,19.41369 -6.83802,3.26349 -16.1293,4.7058 -20.68731,3.21134 z"
       id="path3183"
       inkscape:connector-curvature="0" />
    <path
       style="fill:#4f4f4f"
       d="m 262.96938,871.46406 c -13.17607,-4.06175 -21.07441,-20.00411 -19.73556,-39.83513 0.43314,-6.41567 2.69673,-12.68182 22.62412,-62.62893 24.34941,-61.03068 24.98667,-62.26154 36.4074,-70.32003 19.90201,-14.04289 37.72752,-9.74859 45.81715,11.03772 1.81886,4.67355 2.26639,7.89156 2.33394,16.78231 l 0.0836,11 -21.21655,53.22427 c -11.6691,29.27335 -22.17336,55.09976 -23.34278,57.39204 -4.57363,8.96505 -18.45185,20.72849 -27.75988,23.5298 -5.5498,1.67024 -9.35023,1.62476 -15.21141,-0.18205 z m 347.25314,-2.5049 c -8.7735,-1.77266 -22.02164,-11.35815 -28.06396,-20.30526 -1.54291,-2.28464 -13.04354,-28.07784 -25.55696,-57.31821 -25.11105,-58.67754 -25.8098,-60.8456 -23.8779,-74.08726 2.52381,-17.29874 10.95759,-27.40914 24.09469,-28.8847 12.74899,-1.43195 32.56685,11.22122 38.93075,24.85623 1.09869,2.35402 12.00241,27.64414 24.23047,56.20027 21.23214,49.58329 22.25685,52.27048 22.76621,59.70179 0.67532,9.85278 -1.02338,18.68353 -5.0557,26.28217 -5.70832,10.75696 -16.052,15.86146 -27.4676,13.55497 z M 413.5,685.82446 C 379.26969,682.37806 342.38004,669.82043 311.56757,651.12556 292.78212,639.72786 277.85198,627.9332 261.45939,611.54061 220.91302,570.99423 196.81691,523.69239 188.33813,468 c -2.4019,-15.77673 -2.4019,-47.22327 0,-63 8.12899,-53.39486 31.66525,-100.93814 69.28715,-139.96017 101.68941,-105.47388 258.49955,-105.33415 360.07022,0.32083 61.7912,64.27593 85.25375,152.42151 62.29459,234.03228 -12.01431,42.70616 -33.83495,79.53313 -66.44948,112.14767 -27.63842,27.63841 -58.14774,47.40479 -93.04061,60.27915 -34.66894,12.79174 -71.35557,17.59347 -107,14.0047 z M 34.992424,640.0108 C 18.835635,637.96998 8.6654708,630.38484 5.8779017,618.29651 3.5146438,608.04822 9.7606982,593.86978 21.257768,583.38447 c 5.236816,-4.77597 9.14821,-6.62909 58.925687,-27.91748 29.324095,-12.54107 55.552115,-23.40158 58.284475,-24.13447 10.08718,-2.70563 25.66268,-0.79017 34.18458,4.20399 9.37117,5.49187 14.34187,15.24296 12.87083,25.2489 -1.53643,10.45075 -11.60163,25.24837 -20.86214,30.67103 -6.26437,3.66821 -109.266164,47.39651 -112.956683,47.95454 -7.330406,1.1084 -11.500763,1.25808 -16.712093,0.59982 z M 825,631.08517 c -9.25106,-3.03985 -105.23374,-42.10743 -109.5,-44.56949 -6.37904,-3.68136 -15.21303,-13.6779 -18.73138,-21.19643 -7.60507,-16.25167 -1.71417,-30.83568 15.15203,-37.51167 4.62548,-1.83086 7.63091,-2.2169 17.57935,-2.258 l 12,-0.0496 54,21.86276 c 29.7,12.02452 55.35,22.55104 57,23.39227 1.65,0.84123 5.97807,4.55203 9.61792,8.24624 18.04762,18.31707 17.91144,38.02635 -0.34079,49.32391 -7.4125,4.58811 -26.78851,6.04221 -36.77713,2.75999 z M 132,346.12163 C 117.64176,341.17673 24.132911,302.67111 20.692027,300.28657 15.078072,296.3961 7.6836051,287.75647 3.8789175,280.64229 1.0777999,275.40463 0.58707765,273.45772 0.54699988,267.4231 c -0.0409341,-6.16357 0.34239504,-7.71228 2.97017322,-12 4.1385736,-6.75288 13.4816319,-12.8693 21.8968609,-14.33475 7.95778,-1.38578 17.979427,-1.38443 22.976735,0.003 6.153175,1.70846 107.653631,42.8216 112.209071,45.4507 6.11473,3.52902 15.29706,14.01297 18.76621,21.42639 7.44237,15.90398 1.3241,30.77647 -15.2867,37.1594 -8.05247,3.09427 -24.5006,3.60377 -32.07935,0.99369 z m 581.54985,-4.66428 c -15.76024,-3.9781 -24.80898,-15.17819 -23.20492,-28.72193 1.29402,-10.92596 12.1233,-26.43317 22.28699,-31.91432 5.3759,-2.89915 105.08007,-45.54737 109.86808,-46.9958 1.65,-0.49915 7.0983,-0.91544 12.10734,-0.92511 25.00414,-0.0482 39.84213,14.08661 34.92707,33.27194 -0.88467,3.45321 -2.80007,8.31465 -4.25645,10.80322 -3.52354,6.02079 -11.79085,14.6648 -16.76394,17.52778 -2.20771,1.27097 -28.0827,12.54596 -57.49998,25.05555 l -53.48596,22.7447 -9.01404,0.32793 c -5.75769,0.20947 -11.16355,-0.21463 -14.96419,-1.17396 z M 305.97311,182.78279 c -10.94366,-3.8311 -22.37535,-13.6878 -26.75218,-23.06644 C 278.1387,157.39736 267.18723,132.1 254.88433,103.5 l -22.3689,-52 -0.008,-11 c -0.006,-7.940127 0.4958,-12.529936 1.80238,-16.5 C 240.27351,5.8800064 255.53219,-0.57956694 273,7.6210989 c 7.46441,3.5043361 16.97576,11.7595941 20.46462,17.7620131 4.06979,7.001864 46.60131,106.713548 48.23988,113.094458 2.5315,9.85819 0.43216,25.32874 -4.54898,33.52243 -6.92746,11.39529 -18.24929,15.31035 -31.18241,10.78279 z M 544,181.51215 c -8.92521,-2.86799 -15.27529,-10.79294 -18.46709,-23.04711 -1.79339,-6.8853 -1.98381,-17.28691 -0.42041,-22.96504 2.3448,-8.5161 43.33369,-110.216835 45.94591,-114 6.43051,-9.312998 18.62595,-18.2652115 27.91958,-20.4947201 10.23337,-2.4549477 21.31647,2.4482728 27.25852,12.0593071 3.84178,6.213934 6.07838,17.453997 5.45923,27.435413 -0.47002,7.577348 -1.63984,10.879315 -22.14251,62.5 -14.17455,35.68802 -22.91846,56.36747 -25.33189,59.91024 C 574.8162,176.71636 556.06436,185.38887 544,181.51215 z"
       id="path3181"
       inkscape:connector-curvature="0" />
    <path
       style="fill:#2f2f2f"
       d="m 262.96938,871.52275 c -9.90188,-3.18069 -16.78732,-12.55186 -19.05909,-25.93964 -2.51544,-14.82377 -2.32396,-15.48855 22.04543,-76.53432 23.66129,-59.27198 24.77612,-61.49866 34.58296,-69.07387 11.08942,-8.56591 23.50409,-11.50437 32.56641,-7.70822 8.36656,3.5047 14.76972,13.36991 16.96663,26.14011 2.31551,13.45959 1.95914,14.67807 -21.59646,73.84099 -11.88023,29.83871 -22.69053,56.12086 -24.0229,58.40478 -3.23017,5.5371 -13.12282,14.36013 -20.52406,18.30495 -7.12581,3.79802 -14.36338,4.68384 -20.95892,2.56522 z m 347.12002,-2.62309 c -9.16022,-1.76575 -24.42551,-13.53337 -29.27867,-22.57019 -1.4265,-2.65621 -12.58494,-28.18111 -24.79654,-56.722 -24.25881,-56.69758 -25.07565,-59.22257 -23.28547,-71.9801 2.12394,-15.13602 9.09186,-25.0658 19.76679,-28.16909 8.90877,-2.58985 18.70161,0.11168 29.71751,8.19809 9.57686,7.03006 11.05874,9.82197 35.58217,67.03781 12.70777,29.64862 23.56648,55.9089 24.13047,58.3562 3.17114,13.76024 -0.86353,30.82083 -9.27903,39.23633 -5.93459,5.93458 -13.92467,8.27698 -22.55723,6.61295 z M 415.5,686.01634 C 366.37659,680.76007 320.49133,661.53054 281,629.65025 271.3572,621.86589 251.13411,601.6428 243.34975,592 213.0224,554.43236 194.18609,510.94838 187.90293,464 c -1.6361,-12.22508 -1.6361,-42.77492 0,-55 5.41807,-40.48433 19.04821,-76.0206 42.19114,-110 42.98798,-63.11674 112.00419,-104.80177 185.32961,-111.93702 87.65015,-8.52919 177.15361,35.12836 229.48494,111.93702 23.06099,33.84748 36.81874,69.7241 42.18213,110 1.62907,12.23335 1.64094,41.65949 0.022,54.5 -5.87214,46.5738 -24.73974,90.26979 -55.48534,128.5 -7.71629,9.59472 -27.93572,29.82644 -37.62738,37.65025 -35.56282,28.70891 -75.95602,47.00314 -120.03069,54.36236 -14.10828,2.35569 -45.21678,3.42177 -58.46931,2.00373 z M 28.734467,638.91195 C 23.357522,637.64516 17.033607,634.28676 13.162371,630.6422 1.0270463,619.21744 3.5214494,601.2039 19.413895,585.49632 L 26.5,578.49264 81,555.28653 c 29.975,-12.76337 56.95863,-23.73212 59.96362,-24.375 9.38793,-2.00845 24.42751,0.30734 32.03638,4.93295 9.89099,6.01296 14.34634,15.65052 12.09279,26.15847 -1.81561,8.46588 -6.11183,16.01355 -13.13229,23.07104 l -6.53951,6.57398 -53.46049,22.83158 c -29.403277,12.55737 -55.444519,23.43658 -57.869431,24.17602 -4.882312,1.48878 -19.498359,1.63656 -25.356602,0.25638 z M 824,630.6332 c -12.7151,-4.54735 -106.55301,-42.81233 -109.58653,-44.68692 -4.38709,-2.71103 -12.54696,-11.59795 -15.88359,-17.29883 -14.0711,-24.04151 2.81973,-45.24588 34.59804,-43.43362 8.1608,0.46539 9.76009,1.03919 63.37208,22.73668 32.49355,13.15057 56.84144,23.57206 59.5,25.46745 9.12514,6.50564 17.98337,19.81868 19.49243,29.29519 1.42694,8.96078 -3.90183,19.36384 -12.79415,24.97732 -8.69923,5.49158 -27.5608,6.92587 -38.69828,2.94273 z M 133.5,346.63396 C 121.0513,342.4618 23.904813,302.34257 20.38221,299.91896 14.329344,295.75448 7.410214,287.49688 3.708336,280.01962 c -6.6284705,-13.38855 -3.20510514,-25.61803 9.49389,-33.91555 7.218267,-4.71642 16.057599,-6.59097 27.716091,-5.87772 7.094974,0.43406 11.112432,1.89068 62.581683,22.69037 30.25,12.22459 56.67518,23.37196 58.72263,24.77194 13.3631,9.13723 22.18825,26.13086 19.73402,37.99966 -1.90996,9.23672 -8.01869,15.67267 -18.49003,19.4805 -7.43573,2.70395 -23.87248,3.50758 -29.96662,1.46514 z M 718,342.30962 c -6.49833,-1.08657 -15.10756,-4.70983 -18.89584,-7.95246 -11.0213,-9.43382 -11.62698,-23.69119 -1.64528,-38.72925 7.91629,-11.92639 8.86062,-12.45182 67.04112,-37.30177 29.15,-12.4505 55.025,-23.27588 57.5,-24.05641 3.11267,-0.98163 7.73874,-1.2991 15.00535,-1.02975 8.80865,0.3265 11.47353,0.83184 16.5,3.12885 11.26021,5.14572 16.77169,12.76195 16.70645,23.08635 -0.0668,10.56419 -5.70078,21.36424 -15.87601,30.43328 -4.94943,4.41135 -10.40776,6.96781 -59.64191,27.93383 C 764.88725,330.51524 738.475,341.3618 736,341.92575 c -4.44153,1.01204 -13.13446,1.19742 -18,0.38387 z M 309.75415,183.91604 C 299.18607,181.42468 284.85578,170.52134 280.2333,161.45481 279.12432,159.27966 267.94227,133.65 255.3843,104.5 l -22.83267,-53 -0.0258,-11 C 232.48685,23.896749 237.16741,12.924599 246.6724,7.3376283 250.81908,4.9002389 252.56082,4.5 259.02103,4.5 c 6.53889,0 8.43238,0.4472409 14.5,3.424882 7.85607,3.855312 17.98858,13.213143 21.21671,19.5946 1.10748,2.189285 12.01201,27.332157 24.23229,55.873049 24.51083,57.245909 25.19021,59.368879 23.18643,72.455429 -2.25346,14.71715 -9.24298,24.59442 -19.58796,27.68076 -5.45966,1.62885 -7.31058,1.6848 -12.81435,0.38732 z M 546.08558,181.899 C 532.64882,179.30916 524.48443,165.53114 524.51675,145.5 l 0.0161,-10 L 546.33906,81 C 558.33245,51.025 569.23083,24.631341 570.55767,22.347423 573.9597,16.491467 583.62438,8.1064516 591.63311,4.0625 c 5.53063,-2.7926509 7.94762,-3.4375 12.88425,-3.4375 10.39385,0 19.17188,5.8951417 23.56265,15.824195 2.91382,6.589138 4.51469,20.450509 3.22883,27.957291 -0.68845,4.019159 -9.13777,26.548796 -22.77986,60.741194 -23.24038,58.24951 -24.39749,60.54675 -34.29109,68.07918 -9.603,7.31118 -19.45992,10.34754 -28.15231,8.67214 z"
       id="path3179"
       inkscape:connector-curvature="0" />
    <path
       style="fill:#000000"
       d="m 265,872.11991 c -8.86427,-2.90131 -14.75447,-8.0484 -18.07484,-15.7945 -2.48796,-5.80418 -4.31277,-19.37034 -3.51667,-26.14391 0.46028,-3.91628 7.11964,-21.89458 21.72983,-58.66416 11.58639,-29.15954 22.23365,-55.18602 23.66057,-57.83663 3.40589,-6.32671 13.55591,-15.72869 20.81331,-19.27941 6.7168,-3.28622 16.11912,-4.30514 21.95475,-2.37921 12.57706,4.15081 21.52333,24.22314 18.59819,41.72791 -1.37956,8.25567 -42.77933,112.37545 -47.28798,118.92855 -3.65367,5.31042 -13.35081,13.5143 -19.89242,16.82918 -5.24731,2.65902 -13.9706,3.92602 -17.98474,2.61218 z m 340.48374,-4.70428 c -5.54881,-1.97079 -17.24329,-11.08225 -21.60324,-16.83163 -5.06843,-6.68362 -49.54117,-110.72647 -51.02824,-119.37928 -1.99169,-11.58897 1.73702,-26.86823 8.51124,-34.87681 11.09001,-13.11079 35.88053,-7.93188 49.84757,10.4135 2.53308,3.32715 11.25304,22.47303 27.47104,60.31649 l 23.75998,55.4421 0.005,10 c 0.008,16.50845 -4.29753,26.15359 -14.84334,33.25 -4.29261,2.88855 -5.5679,3.24122 -11.46674,3.17105 -3.65035,-0.0434 -8.44431,-0.72086 -10.65325,-1.50542 z M 421,686.37256 C 363.23827,680.9572 313.41496,658.95238 270,619.68231 233.09984,586.30506 205.36821,540.36564 193.54021,493.02122 173.12025,411.28538 198.75297,323.83883 261.41475,261.46584 304.74779,218.33251 359.0035,192.45605 417.5,187.02328 c 98.08079,-9.1091 198.41265,49.00882 244.765,141.7818 18.06192,36.15047 25.98026,69.24806 25.88479,108.19492 -0.0885,36.09545 -7.84466,69.85941 -23.54604,102.5 C 627.1654,617.32815 552.7527,672.73746 469.87096,684.50227 458.67323,686.09175 429.7935,687.19698 421,686.37256 z M 28.024244,638.45056 C 17.526385,635.52667 9.484166,629.0271 6.9816142,621.44429 4.8872433,615.09828 6.188572,605.30471 10.10487,597.93922 14.182944,590.26947 22.82452,581.15072 29.002484,577.99812 31.476118,576.73583 56.675,565.82713 85,553.75657 c 56.61484,-24.12614 58.69861,-24.78818 71.85993,-22.83067 18.50982,2.75299 28.58726,12.19428 28.45122,26.65518 -0.0986,10.48308 -7.66249,23.74909 -17.99465,31.56019 -3.21196,2.42824 -22.97226,11.39988 -59.3165,26.93111 l -54.5,23.28984 -10,0.30673 c -6.759842,0.20735 -11.774231,-0.18743 -15.475756,-1.21839 z M 826,631.10351 c -3.025,-0.98391 -28.675,-11.1358 -57,-22.55974 -54.95922,-22.16596 -58.22577,-23.82785 -65.88783,-33.52108 -6.27551,-7.93912 -8.53529,-13.51764 -8.92107,-22.02269 -0.29037,-6.40143 0.0114,-8.15914 2.06052,-12 4.74458,-8.89341 16.19032,-14.81456 30.42759,-15.7409 4.91255,-0.31964 10.09196,-0.0505 12.96847,0.67377 4.67692,1.17766 105.83502,41.71453 111.82791,44.81256 7.8194,4.04224 17.72523,14.96579 21.74138,23.97509 2.55788,5.73799 2.81691,15.09182 0.56361,20.35221 -2.25813,5.27165 -7.46922,10.7358 -12.82866,13.45163 -8.94803,4.53431 -25.24386,5.7368 -34.95192,2.57915 z M 133,346.16038 C 125.81569,343.73207 29.013322,304.57522 24.764997,302.37899 16.701059,298.21023 6.8479457,287.40606 2.7868969,278.27948 -5.9682928,258.60355 10.670136,240.0079 37,240.04181 c 3.025,0.004 7.493366,0.46652 9.929702,1.02805 4.688078,1.08052 104.857488,41.25044 112.182738,44.9875 6.86999,3.50481 15.41906,12.80207 19.38893,21.0858 10.54179,21.99702 -2.53553,39.3574 -30.50137,40.49111 -7.39158,0.29965 -10.72066,-0.0275 -15,-1.47389 z m 582.25116,-4.67684 C 689.62816,335.91736 683.0382,315.01048 699.86914,292.6835 706.8696,283.39709 710.44613,281.5162 768,256.8538 l 54.5,-23.3538 12,0.0496 c 14.10802,0.0583 20.4201,1.98724 27.8214,8.50212 12.0512,10.6079 9.81307,29.53603 -5.32388,45.02475 -3.02637,3.0967 -7.52637,6.66314 -10,7.92543 -2.47364,1.26229 -27.67252,12.16808 -55.99752,24.23509 -58.74442,25.02627 -60.53379,25.55179 -75.74884,22.24657 z M 307,183.06487 c -8.39358,-2.56246 -19.11785,-10.63932 -24.28309,-18.28854 -1.95961,-2.90198 -13.99039,-29.69271 -26.73507,-59.53495 C 233.80438,53.311845 232.78788,50.650453 232.30151,43.241378 230.87616,21.528398 242.5949,4 258.53663,4 c 9.8265,0 25.17556,8.683246 32.36492,18.309426 5.48563,7.344969 49.74533,110.807864 51.16029,119.593904 2.64944,16.45153 -4.36332,34.67556 -15.39926,40.01797 -4.45778,2.15797 -14.43844,2.73844 -19.66258,1.14357 z m 234.46129,-2.89069 c -5.86515,-2.74066 -11.96992,-10.17233 -14.37674,-17.50163 -2.73486,-8.3282 -3.58994,-18.0798 -2.1701,-24.74827 1.95409,-9.1776 43.72641,-112.804599 47.62982,-118.158025 4.13018,-5.664443 12.2819,-12.2477286 20.01284,-16.1622619 15.37449,-7.7848162 31.90545,0.1958804 37.06921,17.8960069 1.13594,3.893707 1.76115,9.510488 1.78099,16 l 0.0306,10 -21.79155,54.5 c -11.98536,29.975 -22.86325,56.34493 -24.1731,58.59984 -3.35283,5.77193 -13.32493,14.6909 -20.17564,18.04494 -7.54853,3.69569 -17.79355,4.35304 -23.8363,1.5294 z"
       id="path3177"
       inkscape:connector-curvature="0" />
  </g>
</svg>
